<svg width="31" height="36" viewBox="0 0 31 36" fill="none" xmlns="http://www.w3.org/2000/svg">
<path d="M13.3759 2.38934L1.62356 14.3534C1.10886 14.8768 0.700551 15.4984 0.42197 16.1826C0.143389 16.8669 0 17.6002 0 18.3409C0 19.0815 0.143389 19.8149 0.42197 20.4991C0.700551 21.1833 1.10886 21.8049 1.62356 22.3284L13.3759 34.2924C13.8902 34.8164 14.5008 35.2321 15.1729 35.5157C15.845 35.7993 16.5654 35.9452 17.2929 35.9452C18.0205 35.9452 18.7409 35.7993 19.413 35.5157C20.0851 35.2321 20.6957 34.8164 21.2099 34.2924L25.1298 30.3049L21.2099 26.3174L17.2929 30.3049L5.54054 18.3409L17.2929 6.37686L25.1283 14.3534L17.2929 22.3284L21.2099 26.3189L29.0453 18.3409C29.5602 17.8174 29.9687 17.1957 30.2474 16.5114C30.5261 15.827 30.6696 15.0935 30.6696 14.3526C30.6696 13.6118 30.5261 12.8783 30.2474 12.1939C29.9687 11.5096 29.5602 10.8879 29.0453 10.3644L21.1941 2.38934C20.6815 1.86534 20.0723 1.44955 19.4015 1.16584C18.7307 0.882131 18.0114 0.736084 17.285 0.736084C16.5586 0.736084 15.8393 0.882131 15.1685 1.16584C14.4977 1.44955 13.8885 1.86534 13.3759 2.38934V2.38934Z" fill="#96C83E"/>
</svg>
