<svg width="47" height="49" viewBox="0 0 47 49" fill="none" xmlns="http://www.w3.org/2000/svg">
<path fill-rule="evenodd" clip-rule="evenodd" d="M23.4579 0.470727C17.8881 0.471508 12.5002 2.53715 8.25801 6.29816C4.01586 10.0592 1.1962 15.2702 0.303404 20.999C-0.589387 26.7279 0.502938 32.6008 3.38498 37.5674C6.26703 42.5339 10.7508 46.27 16.0342 48.1073C17.2072 48.3343 17.71 47.5834 17.71 46.9373V42.7813C11.1911 44.2481 9.817 39.4985 9.817 39.4985C9.35859 38.0017 8.39379 36.7295 7.10223 35.9187C4.97398 34.417 7.2698 34.4345 7.2698 34.4345C8.01319 34.5439 8.72275 34.8289 9.34428 35.2677C9.96581 35.7066 10.4829 36.2876 10.856 36.9665C11.5051 38.1796 12.59 39.0745 13.8721 39.4543C15.1543 39.8342 16.5287 39.6679 17.6932 38.9921C17.7878 37.7531 18.312 36.5923 19.1679 35.7266C13.9729 35.098 8.49313 33.0026 8.49313 23.6429C8.45514 21.212 9.31967 18.8597 10.9063 17.0772C10.1881 14.9716 10.2721 12.6592 11.1409 10.6162C11.1409 10.6162 13.1015 9.95263 17.5926 13.1133C21.4327 12.0218 25.4831 12.0218 29.3231 13.1133C33.7975 9.95263 35.7582 10.6162 35.7582 10.6162C36.6269 12.6592 36.7109 14.9716 35.9928 17.0772C37.5794 18.8597 38.4439 21.212 38.4059 23.6429C38.4059 33.0375 32.9261 35.098 27.6976 35.7092C28.2577 36.3007 28.6896 37.0105 28.9642 37.7907C29.2388 38.5708 29.3498 39.4032 29.2896 40.2319V46.9373C29.2896 47.7406 29.7086 48.3517 30.9654 48.1073C36.2557 46.2677 40.7441 42.5244 43.6257 37.5487C46.5073 32.5731 47.5936 26.6905 46.6898 20.9558C45.7861 15.2211 42.9513 10.0095 38.6939 6.25551C34.4365 2.5015 29.035 0.45065 23.4579 0.470727Z" fill="#F5FEFF"/>
</svg>
