<svg width="47" height="49" viewBox="0 0 47 49" fill="none" xmlns="http://www.w3.org/2000/svg">
<path fill-rule="evenodd" clip-rule="evenodd" d="M17.4581 17.0886H26.186V21.5C27.4433 18.9628 30.6675 16.6832 35.5108 16.6832C44.7957 16.6832 47 21.7337 47 31.0001V48.1618H37.6V33.1104C37.6 27.8334 36.3428 24.8575 33.1421 24.8575C28.7029 24.8575 26.8581 28.0647 26.8581 33.108V48.1618H17.4581V17.0886ZM1.3395 47.7564H10.7395V16.6832H1.3395V47.7564ZM12.0861 6.55121C12.0864 7.35069 11.9301 8.14227 11.6264 8.87994C11.3226 9.6176 10.8773 10.2866 10.3165 10.8482C9.18004 11.9943 7.64175 12.6358 6.0395 12.6318C4.44007 12.6307 2.90533 11.9909 1.7672 10.8506C1.2084 10.2871 0.764657 9.61733 0.461408 8.87957C0.158158 8.1418 0.00136096 7.35057 0 6.55121C0 4.93686 0.6345 3.39167 1.76955 2.25185C2.90668 1.11002 4.44206 0.469868 6.04185 0.470582C7.64455 0.470582 9.18145 1.11203 10.3165 2.25185C11.4492 3.39167 12.0861 4.93686 12.0861 6.55121Z" fill="#F5FEFF"/>
</svg>
